<svg width="1204" height="252" viewBox="0 0 1204 252" fill="none" xmlns="http://www.w3.org/2000/svg">
<path d="M954.885 48.1934C954.885 52.0605 951.018 55.3548 943.283 58.0762C935.549 60.7259 926.096 62.0508 914.924 62.0508C903.68 62.0508 889.715 60.5111 873.029 57.4316C864.221 62.015 856.164 68.8184 848.859 77.8418C841.555 86.7936 833.713 99.5052 825.334 115.977C816.955 132.448 810.796 143.441 806.857 148.955C802.99 154.398 797.655 159.697 790.852 164.854C772.876 178.174 754.221 184.834 734.885 184.834C724.572 184.834 716.122 182.65 709.533 178.281C703.016 173.913 699.758 168.255 699.758 161.309C699.758 157.799 700.796 154.792 702.873 152.285C704.95 149.779 707.421 148.525 710.285 148.525C714.94 148.525 717.268 150.96 717.268 155.83C717.268 158.122 716.551 160.091 715.119 161.738C713.687 163.385 711.932 164.209 709.855 164.209C706.49 164.209 704.807 162.562 704.807 159.268C704.807 157.549 704.52 156.689 703.947 156.689C702.73 156.689 702.121 158.444 702.121 161.953C702.121 167.754 705.093 172.66 711.037 176.67C717.053 180.68 724.429 182.686 733.166 182.686C752.359 182.686 769.582 174.02 784.836 156.689C791.997 148.597 801.236 135.241 812.551 116.621C831.027 86.3997 850.327 66.5267 870.451 57.002C866.584 56.3574 860.783 55.1758 853.049 53.457C834.859 49.5182 820.93 47.5488 811.262 47.5488C810.259 47.5488 807.251 47.6921 802.238 47.9785C805.604 54.2806 807.287 61.4779 807.287 69.5703C807.287 85.3255 801.307 100.114 789.348 113.936C777.388 127.757 764.605 134.668 750.998 134.668C745.34 134.668 740.721 132.806 737.141 129.082C733.632 125.286 731.877 120.417 731.877 114.473C731.877 106.309 734.956 97.2852 741.115 87.4023C747.346 77.4479 755.367 68.7826 765.178 61.4062C775.061 53.9583 785.874 48.7663 797.619 45.8301C791.962 38.1673 783.905 34.3359 773.449 34.3359C764.641 34.3359 755.725 36.9141 746.701 42.0703C737.749 47.1549 729.872 54.1016 723.068 62.9102C722.066 64.2708 721.385 64.9512 721.027 64.9512C720.598 64.9512 720.311 64.7363 720.168 64.3066C720.168 63.0892 723.104 59.5443 728.977 53.6719C743.085 39.6354 757.837 32.6172 773.234 32.6172C785.194 32.6172 794.289 36.8066 800.52 45.1855C809.185 42.679 819.139 41.4258 830.383 41.4258C836.184 41.4258 841.483 41.7839 846.281 42.5C851.366 43.2878 863.827 45.7227 883.664 49.8047C900.207 42.5716 916.105 38.9551 931.359 38.9551C947.043 38.9551 954.885 42.0345 954.885 48.1934ZM953.166 48.4082C953.166 46.3314 951.125 44.5768 947.043 43.1445C943.033 41.7122 937.948 40.9961 931.789 40.9961C916.464 40.9961 901.604 44.2188 887.209 50.6641C888.999 50.9505 893.762 51.8099 901.496 53.2422C912.954 55.4622 923.124 56.5723 932.004 56.5723C937.805 56.5723 942.782 55.7845 946.936 54.209C951.089 52.5618 953.166 50.6283 953.166 48.4082ZM803.098 64.3066C803.098 58.5775 801.773 53.278 799.123 48.4082C783.081 51.0579 768.15 59.3294 754.328 73.2227C740.507 87.1159 733.596 100.794 733.596 114.258C733.596 119.414 735.171 123.747 738.322 127.256C741.545 130.765 745.484 132.52 750.139 132.52C762.242 132.52 774.094 125.072 785.695 110.176C797.297 95.2083 803.098 79.9186 803.098 64.3066Z" fill="white"/>
<path d="M94.572 108.668C93.684 112.911 91.4147 116.857 87.764 120.508C84.212 124.159 79.7227 126.872 74.296 128.648C79.7227 130.917 83.62 134.469 85.988 139.304C88.356 144.139 88.8 150.157 87.32 157.36C85.248 166.536 80.512 173.689 73.112 178.82C65.712 183.852 55.6973 186.368 43.068 186.368C28.86 186.368 18.3027 182.915 11.396 176.008C4.588 169.003 2.02267 159.383 3.7 147.148H27.972C26.8867 159.481 32.5107 165.648 44.844 165.648C54.8093 165.648 60.68 161.603 62.456 153.512C63.5413 148.48 62.8013 144.632 60.236 141.968C57.7693 139.304 53.724 137.972 48.1 137.972H40.256L43.956 120.36H52.096C62.9493 120.36 69.116 116.66 70.596 109.26C71.484 105.116 70.744 101.86 68.376 99.492C66.008 97.0253 62.4067 95.792 57.572 95.792C47.6067 95.792 41.1933 100.627 38.332 110.296H14.356C19.388 87.6027 34.5333 76.256 59.792 76.256C71.7307 76.256 81.0547 79.1667 87.764 84.988C94.4733 91.0067 96.7427 98.9 94.572 108.668ZM117.161 78.624H158.453C175.423 78.624 187.806 83.8533 195.601 94.312C203.395 104.771 205.517 118.485 201.965 135.456C198.61 151.637 191.851 163.773 181.689 171.864C171.625 179.955 157.565 184 139.509 184H94.8125L117.161 78.624ZM176.805 132.792C179.074 122.235 178.285 114.095 174.437 108.372C170.687 102.649 164.373 99.788 155.493 99.788H137.733L124.265 162.836H142.173C161.117 162.836 172.661 152.821 176.805 132.792ZM338.236 184H312.484L310.116 165.648H266.456L256.392 184H230.047L291.172 78.624H320.772L338.236 184ZM287.768 126.724L277.852 144.78H307.452L305.232 126.724C303.949 117.943 302.864 109.112 301.976 100.232C297.042 109.803 292.306 118.633 287.768 126.724ZM430.681 100.676L435.417 78.624H459.245L436.749 184H410.405L393.681 141.968C389.142 130.72 385.541 120.755 382.877 112.072C379.522 130.128 376.217 146.753 372.961 161.948L368.225 184H344.397L366.893 78.624H393.237L410.109 120.656C414.944 133.088 418.496 143.103 420.765 150.7C422.442 141.524 425.748 124.849 430.681 100.676ZM478.548 184H453.536L476.032 78.624H501.044L478.548 184ZM573.17 123.468L596.406 78.624H633.998L611.65 184H588.118L594.778 153.068C599.021 133.335 602.918 116.265 606.47 101.86C602.425 109.951 598.33 118.041 594.186 126.132L563.698 184H543.422L537.502 126.132C536.417 114.193 535.776 106.152 535.578 102.008C532.816 117.4 529.461 134.42 525.514 153.068L519.002 184H494.582L517.078 78.624H554.226L558.814 123.912C559.012 125.589 559.554 134.124 560.442 149.516C561.922 146.457 566.165 137.775 573.17 123.468ZM726.446 184H700.694L698.326 165.648H654.666L644.602 184H618.258L679.382 78.624H708.982L726.446 184ZM675.978 126.724L666.062 144.78H695.662L693.442 126.724C692.16 117.943 691.074 109.112 690.186 100.232C685.253 109.803 680.517 118.633 675.978 126.724ZM863.723 184H838.711L861.207 78.624H886.219L863.723 184ZM931.706 186.368C915.13 186.368 902.649 181.04 894.262 170.384C885.777 159.827 883.458 145.421 887.306 127.168C890.365 112.368 897.666 100.183 909.21 90.612C920.557 81.0413 934.074 76.256 949.762 76.256C966.141 76.256 978.573 81.5347 987.058 92.092C995.544 102.649 997.862 116.956 994.014 135.012C990.956 149.812 983.654 162.096 972.11 171.864C960.468 181.533 947 186.368 931.706 186.368ZM934.074 164.612C942.264 164.612 949.565 161.701 955.978 155.88C962.194 150.059 966.338 142.313 968.41 132.644C970.68 121.791 969.89 113.305 966.042 107.188C962.194 101.071 955.83 98.012 946.95 98.012C938.662 98.012 931.41 100.923 925.194 106.744C918.978 112.565 914.785 120.459 912.614 130.424C910.246 141.08 910.986 149.467 914.834 155.584C918.682 161.603 925.096 164.612 934.074 164.612ZM1080.49 100.676L1085.23 78.624H1109.06L1086.56 184H1060.22L1043.49 141.968C1038.95 130.72 1035.35 120.755 1032.69 112.072C1029.33 130.128 1026.03 146.753 1022.77 161.948L1018.04 184H994.21L1016.71 78.624H1043.05L1059.92 120.656C1064.76 133.088 1068.31 143.103 1070.58 150.7C1072.25 141.524 1075.56 124.849 1080.49 100.676ZM1146.86 186.368C1131.27 186.368 1119.87 183.112 1112.67 176.6C1105.57 169.989 1103.15 160.912 1105.42 149.368H1129.84C1128.75 155.781 1129.79 160.32 1132.95 162.984C1136.2 165.549 1141.68 166.832 1149.38 166.832C1155 166.832 1159.49 165.895 1162.84 164.02C1166.3 162.145 1168.32 159.58 1168.91 156.324C1169.9 152.18 1169.26 149.121 1166.99 147.148C1164.72 145.175 1160.03 143.497 1152.93 142.116L1144.79 140.636C1133.93 138.761 1126.04 134.815 1121.11 128.796C1116.27 122.777 1114.84 114.933 1116.82 105.264C1118.39 96.8773 1123.23 89.9213 1131.32 84.396C1139.11 78.9693 1149.28 76.256 1161.81 76.256C1176.61 76.256 1187.31 79.216 1193.92 85.136C1200.63 91.056 1203.05 99.5413 1201.18 110.592H1177.35C1178.14 105.461 1177.2 101.712 1174.54 99.344C1171.97 96.976 1167.28 95.792 1160.48 95.792C1149.62 95.792 1143.55 99.2453 1142.27 106.152C1141.48 109.901 1142.22 112.763 1144.49 114.736C1146.76 116.709 1151.05 118.288 1157.37 119.472L1165.95 121.1C1177.69 123.271 1185.98 127.217 1190.82 132.94C1195.65 138.663 1197.03 146.457 1194.96 156.324C1192.89 165.796 1187.61 173.196 1179.12 178.524C1170.64 183.753 1159.88 186.368 1146.86 186.368Z" fill="white"/>
</svg>
