<svg width="1124" height="272" viewBox="0 0 1124 272" fill="none" xmlns="http://www.w3.org/2000/svg">
<path d="M1040.16 66.6875C1040.16 71.4857 1035.76 73.8848 1026.95 73.8848C1020 73.8848 1003.5 70.6621 977.43 64.2168C965.255 71.1634 959.168 79.9004 959.168 90.4277C959.168 95.5124 960.923 99.0215 964.432 100.955C969.516 100.525 973.348 100.311 975.926 100.311C983.374 100.311 987.098 101.206 987.098 102.996C987.098 104.142 985.128 104.715 981.189 104.715C976.176 104.715 970.734 103.999 964.861 102.566C956.912 103.712 947.674 106.792 937.146 111.805C910.363 124.624 896.971 141.238 896.971 161.648C896.971 175.184 904.275 183.777 918.885 187.43C916.235 183.061 914.91 178.012 914.91 172.283C914.91 158.175 922.107 145.177 936.502 133.289C950.896 121.401 966.652 115.457 983.768 115.457C991.645 115.457 997.911 117.391 1002.57 121.258C1007.22 125.125 1009.55 130.317 1009.55 136.834C1009.55 150.799 1001.89 163.403 986.561 174.646C971.235 185.818 953.976 191.404 934.783 191.404C930.916 191.404 927.299 191.189 923.934 190.76C930.809 199.998 941.014 204.617 954.549 204.617C962.928 204.617 969.767 203.364 975.066 200.857L976.355 200.643C976.785 200.786 977 201.072 977 201.502C977 202.505 974.35 203.543 969.051 204.617C963.751 205.763 958.917 206.336 954.549 206.336C939.581 206.336 928.159 200.929 920.281 190.115C909.324 187.68 900.73 183.562 894.5 177.762C888.341 171.889 885.262 165.086 885.262 157.352C885.262 146.967 889.559 137.264 898.152 128.24C906.746 119.145 918.204 112.27 932.527 107.615C941.193 104.751 951.111 102.674 962.283 101.385C954.334 98.0189 950.359 92.6836 950.359 85.3789C950.359 75.9974 956.16 68.1556 967.762 61.8535C951.147 57.8431 937.433 55.8379 926.619 55.8379C905.421 55.8379 887.339 61.1374 872.371 71.7363C857.475 82.3353 850.027 95.1543 850.027 110.193C850.027 116.925 851.997 122.69 855.936 127.488C859.874 132.286 864.601 134.686 870.115 134.686C873.911 134.686 875.809 134.077 875.809 132.859C875.809 132.215 875.128 132 873.768 132.215C869.972 132.215 868.074 130.46 868.074 126.951C868.074 124.946 868.898 123.227 870.545 121.795C872.264 120.363 874.305 119.646 876.668 119.646C881.251 119.646 883.543 121.867 883.543 126.307C883.543 129.243 882.218 131.749 879.568 133.826C876.99 135.831 873.839 136.834 870.115 136.834C863.455 136.834 857.762 133.862 853.035 127.918C848.38 121.902 846.053 114.669 846.053 106.219C846.053 93.543 851.567 81.9056 862.596 71.3066C875.701 58.7025 894.106 52.4004 917.811 52.4004C930.988 52.4004 948.533 55.0859 970.447 60.457C980.33 55.6589 991.824 53.2598 1004.93 53.2598C1014.67 53.2598 1022.98 54.5846 1029.85 57.2344C1036.73 59.8125 1040.16 62.9635 1040.16 66.6875ZM1037.91 66.4727C1037.91 63.6797 1034.94 61.209 1028.99 59.0605C1023.12 56.9121 1016.35 55.8379 1008.69 55.8379C998.162 55.8379 988.566 58.1296 979.9 62.7129C998.878 68.8717 1014.85 71.9512 1027.81 71.9512C1034.54 71.9512 1037.91 70.125 1037.91 66.4727ZM1007.62 135.975C1007.62 130.818 1005.57 126.557 1001.49 123.191C997.41 119.826 992.254 118.143 986.023 118.143C970.626 118.143 955.587 124.552 940.906 137.371C926.225 150.118 918.885 163.152 918.885 176.473C918.885 180.34 920.066 184.279 922.43 188.289C926.583 189.077 930.415 189.471 933.924 189.471C950.825 189.471 967.332 183.634 983.445 171.961C999.559 160.216 1007.62 148.221 1007.62 135.975Z" fill="white"/>
<path d="M367.266 88.2812C367.266 92.0052 366.764 96.0872 365.762 100.527C364.759 104.967 363.792 107.188 362.861 107.188C362.145 107.188 361.787 106.829 361.787 106.113C361.787 105.898 361.859 105.576 362.002 105.146C363.936 100.133 364.902 94.7266 364.902 88.9258C364.902 79.9023 362.217 72.6693 356.846 67.2266C351.475 61.7122 344.385 58.9551 335.576 58.9551C323.76 58.9551 311.585 62.8581 299.053 70.6641C309.079 78.112 314.092 86.8132 314.092 96.7676C314.092 112.738 303.242 122.227 281.543 125.234C299.375 131.465 308.291 142.887 308.291 159.502C308.291 171.82 303.027 182.598 292.5 191.836C282.044 201.074 269.798 205.693 255.762 205.693C249.03 205.693 243.659 203.939 239.648 200.43C235.71 196.992 233.74 192.301 233.74 186.357C233.74 177.191 237.93 168.132 246.309 159.18C254.759 150.156 263.245 145.645 271.768 145.645C276.494 145.645 280.361 147.148 283.369 150.156C286.377 153.092 287.881 156.888 287.881 161.543C287.881 164.336 287.021 167.809 285.303 171.963C283.584 176.117 282.188 178.193 281.113 178.193C280.326 178.193 279.932 177.907 279.932 177.334C279.932 177.048 280.075 176.618 280.361 176.045C284.085 170.602 285.947 165.697 285.947 161.328C285.947 157.246 284.622 153.952 281.973 151.445C279.323 148.939 275.85 147.686 271.553 147.686C263.46 147.686 255.547 151.947 247.812 160.469C240.078 168.991 236.211 177.692 236.211 186.572C236.211 191.299 237.822 195.238 241.045 198.389C244.268 201.54 248.278 203.115 253.076 203.115C264.033 203.115 274.059 197.816 283.154 187.217C292.321 176.546 296.904 164.837 296.904 152.09C296.904 140.202 291.175 131.465 279.717 125.879L273.486 126.631C271.768 126.846 270.049 126.953 268.33 126.953C262.887 126.953 260.166 126.058 260.166 124.268C260.166 122.979 262.422 122.334 266.934 122.334C270.156 122.334 274.417 122.979 279.717 124.268C287.165 121.976 293.037 117.965 297.334 112.236C301.702 106.507 303.887 99.9186 303.887 92.4707C303.887 85.3092 301.13 78.8281 295.615 73.0273C279.932 85.0586 265.179 105.469 251.357 134.258C242.835 151.947 235.029 164.766 227.939 172.715C221.064 180.378 211.289 187.36 198.613 193.662C183.646 200.967 170.29 204.619 158.545 204.619C148.949 204.619 140.964 202.435 134.59 198.066C128.216 193.626 125.029 188.112 125.029 181.523C125.029 177.871 126.104 174.72 128.252 172.07C130.472 169.421 133.086 168.096 136.094 168.096C140.462 168.096 142.646 170.531 142.646 175.4C142.646 177.835 141.895 179.912 140.391 181.631C138.958 183.35 137.168 184.209 135.02 184.209C131.296 184.209 129.505 182.275 129.648 178.408C129.72 176.833 129.577 176.045 129.219 176.045C128.073 176.045 127.5 177.943 127.5 181.738C127.5 187.682 130.4 192.624 136.201 196.562C142.074 200.501 149.45 202.471 158.33 202.471C174.014 202.471 188.229 196.67 200.977 185.068C206.491 180.055 211.289 174.827 215.371 169.385C219.453 163.87 228.799 149.941 243.408 127.598C250.498 116.927 259.02 106.077 268.975 95.0488C278.929 84.0202 287.272 76.1784 294.004 71.5234C282.689 61.9987 266.289 57.2363 244.805 57.2363C214.583 57.2363 188.301 68.1576 165.957 90C147.624 107.904 138.457 124.769 138.457 140.596C138.457 148.617 141.035 154.99 146.191 159.717C151.348 164.443 158.33 166.807 167.139 166.807C181.533 166.807 196.393 159.896 211.719 146.074C227.116 132.253 234.814 118.825 234.814 105.791C234.814 95.4069 229.479 90.2148 218.809 90.2148C208.138 90.2148 196.68 96.1589 184.434 108.047C172.259 119.863 166.172 130.999 166.172 141.455C166.172 144.033 167.031 146.253 168.75 148.115C170.469 149.977 172.474 150.908 174.766 150.908C175.983 151.123 176.592 151.41 176.592 151.768C176.592 152.412 175.911 152.734 174.551 152.734C171.113 152.734 168.213 151.195 165.85 148.115C163.486 144.964 162.305 141.133 162.305 136.621C162.305 125.521 168.428 114.707 180.674 104.18C192.92 93.5807 205.488 88.2812 218.379 88.2812C230.697 88.2812 236.855 93.9746 236.855 105.361C236.855 119.255 229.014 133.291 213.33 147.471C197.646 161.65 182.178 168.74 166.924 168.74C156.969 168.74 148.984 165.768 142.969 159.824C137.025 153.809 134.053 145.788 134.053 135.762C134.053 115.495 145.475 97.0182 168.32 80.332C191.237 63.5742 216.553 55.1953 244.268 55.1953C265.107 55.1953 282.796 59.8861 297.334 69.2676C310.439 61.1035 323.115 57.0215 335.361 57.0215C344.958 57.0215 352.656 59.8861 358.457 65.6152C364.329 71.3444 367.266 78.8997 367.266 88.2812Z" fill="white"/>
<path d="M109.048 184H83.296L80.928 165.648H37.268L27.204 184H0.859999L61.984 78.624H91.584L109.048 184ZM58.58 126.724L48.664 144.78H78.264L76.044 126.724C74.7613 117.943 73.676 109.112 72.788 100.232C67.8547 109.803 63.1187 118.633 58.58 126.724ZM163.458 78.624L145.698 161.652H194.094L189.21 184H115.95L138.446 78.624H163.458ZM350.182 186.368C335.382 186.368 324.38 182.175 317.178 173.788C309.876 165.5 307.952 153.364 311.406 137.38L324.134 78.624H349.146L335.974 140.636C334.296 148.628 334.938 154.647 337.898 158.692C340.858 162.737 345.791 164.76 352.698 164.76C366.018 164.76 374.158 157.607 377.118 143.3L390.586 78.624H415.598L401.39 146.852C398.726 159.679 392.954 169.496 384.074 176.304C375.292 183.013 363.995 186.368 350.182 186.368ZM486.346 123.468L509.582 78.624H547.174L524.826 184H501.294L507.954 153.068C512.197 133.335 516.094 116.265 519.646 101.86C515.601 109.951 511.506 118.041 507.362 126.132L476.874 184H456.598L450.678 126.132C449.593 114.193 448.952 106.152 448.754 102.008C445.992 117.4 442.637 134.42 438.69 153.068L432.178 184H407.758L430.254 78.624H467.402L471.99 123.912C472.188 125.589 472.73 134.124 473.618 149.516C475.098 146.457 479.341 137.775 486.346 123.468ZM624.847 186.368C608.172 186.368 596.085 181.188 588.587 170.828C580.891 160.369 579.016 145.915 582.963 127.464C586.219 112.368 593.421 100.035 604.571 90.464C615.621 80.992 628.892 76.256 644.383 76.256C657.308 76.256 667.816 79.7587 675.907 86.764C683.899 93.6707 687.796 103.537 687.599 116.364H662.439C662.044 110.345 660.071 105.757 656.519 102.6C652.967 99.4427 648.132 97.864 642.015 97.864C633.924 97.864 626.869 100.775 620.851 106.596C614.832 112.319 610.787 120.015 608.715 129.684C606.347 141.031 606.791 149.713 610.047 155.732C613.401 161.751 619.321 164.76 627.807 164.76C634.417 164.76 640.387 162.885 645.715 159.136C651.043 155.387 654.989 150.157 657.555 143.448H682.567C678.324 157.36 671.22 168.016 661.255 175.416C651.388 182.717 639.252 186.368 624.847 186.368ZM737.062 186.368C720.486 186.368 708.004 181.04 699.618 170.384C691.132 159.827 688.814 145.421 692.662 127.168C695.72 112.368 703.022 100.183 714.566 90.612C725.912 81.0413 739.43 76.256 755.118 76.256C771.496 76.256 783.928 81.5347 792.414 92.092C800.899 102.649 803.218 116.956 799.37 135.012C796.311 149.812 789.01 162.096 777.466 171.864C765.823 181.533 752.355 186.368 737.062 186.368ZM739.43 164.612C747.619 164.612 754.92 161.701 761.334 155.88C767.55 150.059 771.694 142.313 773.766 132.644C776.035 121.791 775.246 113.305 771.398 107.188C767.55 101.071 761.186 98.012 752.306 98.012C744.018 98.012 736.766 100.923 730.55 106.744C724.334 112.565 720.14 120.459 717.97 130.424C715.602 141.08 716.342 149.467 720.19 155.584C724.038 161.603 730.451 164.612 739.43 164.612ZM859.576 124.948L883.552 78.624H910.192L852.62 184H822.872L805.704 78.624H831.604L838.264 124.948C839.645 136.492 840.73 148.825 841.52 161.948C847.637 148.727 853.656 136.393 859.576 124.948ZM1039.18 78.624H1085.06C1098.48 78.624 1108.25 81.6333 1114.37 87.652C1120.58 93.572 1122.6 101.613 1120.43 111.776C1119.25 117.301 1116.64 122.087 1112.59 126.132C1108.64 130.177 1103.41 133.088 1096.9 134.864C1106.57 138.317 1110.32 146.211 1108.15 158.544L1106.08 171.568C1105.19 177.093 1105.34 181.237 1106.52 184H1080.77C1079.88 181.336 1079.93 177.143 1080.92 171.42L1082.99 160.024C1084.08 154.499 1083.58 150.651 1081.51 148.48C1079.54 146.309 1075.89 145.224 1070.56 145.224H1050.13L1041.85 184H1016.83L1039.18 78.624ZM1053.98 126.428H1075C1080.33 126.428 1084.67 125.293 1088.02 123.024C1091.38 120.755 1093.45 117.597 1094.24 113.552C1096.21 103.587 1091.87 98.604 1081.21 98.604H1059.9L1053.98 126.428Z" fill="white"/>
</svg>
