<svg width="1131" height="439" viewBox="0 0 1131 439" fill="none" xmlns="http://www.w3.org/2000/svg">
<path d="M249.164 66.6875C249.164 71.4857 244.76 73.8848 235.951 73.8848C229.005 73.8848 212.497 70.6621 186.43 64.2168C174.255 71.1634 168.168 79.9004 168.168 90.4277C168.168 95.5124 169.923 99.0215 173.432 100.955C178.516 100.525 182.348 100.311 184.926 100.311C192.374 100.311 196.098 101.206 196.098 102.996C196.098 104.142 194.128 104.715 190.189 104.715C185.176 104.715 179.734 103.999 173.861 102.566C165.912 103.712 156.674 106.792 146.146 111.805C119.363 124.624 105.971 141.238 105.971 161.648C105.971 175.184 113.275 183.777 127.885 187.43C125.235 183.061 123.91 178.012 123.91 172.283C123.91 158.175 131.107 145.177 145.502 133.289C159.896 121.401 175.652 115.457 192.768 115.457C200.645 115.457 206.911 117.391 211.566 121.258C216.221 125.125 218.549 130.317 218.549 136.834C218.549 150.799 210.886 163.403 195.561 174.646C180.235 185.818 162.976 191.404 143.783 191.404C139.916 191.404 136.299 191.189 132.934 190.76C139.809 199.998 150.014 204.617 163.549 204.617C171.928 204.617 178.767 203.364 184.066 200.857L185.355 200.643C185.785 200.786 186 201.072 186 201.502C186 202.505 183.35 203.543 178.051 204.617C172.751 205.763 167.917 206.336 163.549 206.336C148.581 206.336 137.159 200.929 129.281 190.115C118.324 187.68 109.73 183.562 103.5 177.762C97.3411 171.889 94.2617 165.086 94.2617 157.352C94.2617 146.967 98.5586 137.264 107.152 128.24C115.746 119.145 127.204 112.27 141.527 107.615C150.193 104.751 160.111 102.674 171.283 101.385C163.334 98.0189 159.359 92.6836 159.359 85.3789C159.359 75.9974 165.16 68.1556 176.762 61.8535C160.147 57.8431 146.433 55.8379 135.619 55.8379C114.421 55.8379 96.3385 61.1374 81.3711 71.7363C66.4753 82.3353 59.0273 95.1543 59.0273 110.193C59.0273 116.925 60.9967 122.69 64.9355 127.488C68.8743 132.286 73.6009 134.686 79.1152 134.686C82.9108 134.686 84.8086 134.077 84.8086 132.859C84.8086 132.215 84.1283 132 82.7676 132.215C78.972 132.215 77.0742 130.46 77.0742 126.951C77.0742 124.946 77.8978 123.227 79.5449 121.795C81.2637 120.363 83.3047 119.646 85.668 119.646C90.2513 119.646 92.543 121.867 92.543 126.307C92.543 129.243 91.2181 131.749 88.5684 133.826C85.9902 135.831 82.8392 136.834 79.1152 136.834C72.4551 136.834 66.7617 133.862 62.0352 127.918C57.3802 121.902 55.0527 114.669 55.0527 106.219C55.0527 93.543 60.5671 81.9056 71.5957 71.3066C84.7012 58.7025 103.106 52.4004 126.811 52.4004C139.988 52.4004 157.533 55.0859 179.447 60.457C189.33 55.6589 200.824 53.2598 213.93 53.2598C223.669 53.2598 231.977 54.5846 238.852 57.2344C245.727 59.8125 249.164 62.9635 249.164 66.6875ZM246.908 66.4727C246.908 63.6797 243.936 61.209 237.992 59.0605C232.12 56.9121 225.352 55.8379 217.689 55.8379C207.162 55.8379 197.566 58.1296 188.9 62.7129C207.878 68.8717 223.848 71.9512 236.811 71.9512C243.542 71.9512 246.908 70.125 246.908 66.4727ZM216.615 135.975C216.615 130.818 214.574 126.557 210.492 123.191C206.41 119.826 201.254 118.143 195.023 118.143C179.626 118.143 164.587 124.552 149.906 137.371C135.225 150.118 127.885 163.152 127.885 176.473C127.885 180.34 129.066 184.279 131.43 188.289C135.583 189.077 139.415 189.471 142.924 189.471C159.825 189.471 176.332 183.634 192.445 171.961C208.559 160.216 216.615 148.221 216.615 135.975Z" fill="white"/>
<path d="M921.217 24.1484C921.217 25.9388 920.107 26.834 917.887 26.834H916.383C914.163 26.5475 911.37 26.4043 908.004 26.4043C891.533 26.4043 871.66 33.8164 848.385 48.6406C835.136 57.0911 824.036 65.7565 815.084 74.6367C805.846 83.7318 790.27 101.6 768.355 128.24C741.858 160.395 721.161 181.951 706.266 192.908C701.324 196.561 698.46 198.387 697.672 198.387C697.314 198.387 697.099 198.243 697.027 197.957C697.027 197.885 698.066 196.811 700.143 194.734C709.238 185.496 718.619 167.521 728.287 140.809C736.952 116.961 743.792 99.5586 748.805 88.6016C753.889 77.6445 759.296 68.5137 765.025 61.209C766.386 59.4902 767.066 58.5234 767.066 58.3086C766.565 58.1654 766.028 58.4518 765.455 59.168L764.381 60.2422L761.695 63.5723C757.04 69.373 746.119 83.5885 728.932 106.219C701.79 142.957 677.978 169.383 657.496 185.496C646.467 194.09 640.058 198.387 638.268 198.387C637.91 198.243 637.695 198.029 637.623 197.742C637.623 197.527 638.089 197.026 639.02 196.238C653.056 183.419 666.484 164.191 679.303 138.553C692.193 112.843 698.639 92.3255 698.639 77C698.639 66.5443 696.096 58.2728 691.012 52.1855C685.927 46.0267 678.98 42.9473 670.172 42.9473C651.624 42.9473 633.183 53.2956 614.85 73.9922C596.588 94.6888 587.457 115.564 587.457 136.619C587.457 145.356 589.82 152.41 594.547 157.781C599.345 163.152 605.576 165.838 613.238 165.838C629.423 165.838 644.749 154.773 659.215 132.645C668.596 118.25 673.287 105.431 673.287 94.1875C673.287 88.888 671.962 84.627 669.312 81.4043C666.734 78.1816 663.297 76.5703 659 76.5703C656.422 76.5703 653.915 77.2148 651.48 78.5039C649.046 79.7214 647.828 80.9746 647.828 82.2637C647.828 82.6934 648.043 82.9082 648.473 82.9082C648.688 82.9082 649.046 82.8366 649.547 82.6934C651.337 82.4069 652.519 82.2637 653.092 82.2637C656.314 82.2637 657.926 84.0898 657.926 87.7422C657.926 89.9622 657.066 91.8958 655.348 93.543C653.629 95.1185 651.624 95.9062 649.332 95.9062C644.892 95.9062 642.672 93.5072 642.672 88.709C642.672 84.9134 644.319 81.6191 647.613 78.8262C650.908 75.9616 654.703 74.5293 659 74.5293C663.941 74.5293 667.88 76.3197 670.816 79.9004C673.824 83.4811 675.328 88.2435 675.328 94.1875C675.328 107.651 669.169 122.833 656.852 139.734C643.173 158.354 628.564 167.664 613.023 167.664C604 167.664 596.552 164.227 590.68 157.352C584.879 150.405 581.979 141.668 581.979 131.141C581.979 121.258 584.592 110.945 589.82 100.203C595.12 89.4609 602.353 79.6855 611.52 70.877C632.073 50.8965 651.803 40.9062 670.709 40.9062C681.809 40.9062 691.119 45.2747 698.639 54.0117C706.23 62.7487 710.025 73.4909 710.025 86.2383C710.025 99.9167 704.368 116.531 693.053 136.082C681.738 155.561 668.023 172.319 651.91 186.355C650.335 187.788 649.547 188.576 649.547 188.719C649.618 189.005 649.762 189.148 649.977 189.148C652.197 189.148 659.322 182.918 671.354 170.457C688.398 152.768 711.422 124.839 740.426 86.668C748.733 75.7109 756.897 65.8997 764.918 57.2344C772.939 48.569 777.88 44.2363 779.742 44.2363C780.172 44.2363 780.387 44.4512 780.387 44.8809C780.387 45.0957 780.172 45.4538 779.742 45.9551C775.23 51.9707 771.578 58.0938 768.785 64.3242C765.634 71.4141 760.872 84.7344 754.498 104.285C747.48 125.626 741.106 141.883 735.377 153.055C729.361 164.585 721.806 175.005 712.711 184.314C712.568 184.601 712.424 184.852 712.281 185.066C712.353 185.281 712.496 185.424 712.711 185.496C713.928 185.496 719.049 180.805 728.072 171.424C734.374 164.907 751.992 144.139 780.924 109.119C795.891 91.0007 809.283 76.7135 821.1 66.2578C832.916 55.7305 846.201 46.349 860.953 38.1133C881.077 26.7982 898.622 21.1406 913.59 21.1406C918.674 21.1406 921.217 22.1432 921.217 24.1484Z" fill="white"/>
<path d="M48.36 84.624L30.6 167.652H78.996L74.112 190H0.852L23.348 84.624H48.36ZM239.135 84.624H328.971L324.087 106.972H291.823L274.063 190H248.903L266.663 106.972H234.399L239.135 84.624ZM330.871 108.008L335.755 84.624H359.879L354.699 108.896C352.923 117.085 349.865 122.857 345.523 126.212C341.182 129.468 334.67 131.145 325.987 131.244L328.355 119.552C332.598 119.453 335.509 118.763 337.087 117.48C338.765 116.099 340.047 113.237 340.935 108.896L341.083 108.008H330.871ZM428.673 192.368C413.083 192.368 401.687 189.112 394.485 182.6C387.381 175.989 384.963 166.912 387.233 155.368H411.653C410.567 161.781 411.603 166.32 414.761 168.984C418.017 171.549 423.493 172.832 431.189 172.832C436.813 172.832 441.302 171.895 444.657 170.02C448.11 168.145 450.133 165.58 450.725 162.324C451.711 158.18 451.07 155.121 448.801 153.148C446.531 151.175 441.845 149.497 434.741 148.116L426.601 146.636C415.747 144.761 407.854 140.815 402.921 134.796C398.086 128.777 396.655 120.933 398.629 111.264C400.207 102.877 405.042 95.9213 413.133 90.396C420.927 84.9693 431.09 82.256 443.621 82.256C458.421 82.256 469.126 85.216 475.737 91.136C482.446 97.056 484.863 105.541 482.989 116.592H459.161C459.95 111.461 459.013 107.712 456.349 105.344C453.783 102.976 449.097 101.792 442.289 101.792C431.435 101.792 425.367 105.245 424.085 112.152C423.295 115.901 424.035 118.763 426.305 120.736C428.574 122.709 432.866 124.288 439.181 125.472L447.765 127.1C459.506 129.271 467.794 133.217 472.629 138.94C477.463 144.663 478.845 152.457 476.773 162.324C474.701 171.796 469.422 179.196 460.937 184.524C452.451 189.753 441.697 192.368 428.673 192.368ZM845.554 192.368C828.978 192.368 816.497 187.04 808.11 176.384C799.625 165.827 797.306 151.421 801.154 133.168C804.213 118.368 811.514 106.183 823.058 96.612C834.405 87.0413 847.922 82.256 863.61 82.256C879.989 82.256 892.421 87.5347 900.906 98.092C909.391 108.649 911.71 122.956 907.862 141.012C904.803 155.812 897.502 168.096 885.958 177.864C874.315 187.533 860.847 192.368 845.554 192.368ZM847.922 170.612C856.111 170.612 863.413 167.701 869.826 161.88C876.042 156.059 880.186 148.313 882.258 138.644C884.527 127.791 883.738 119.305 879.89 113.188C876.042 107.071 869.678 104.012 860.798 104.012C852.51 104.012 845.258 106.923 839.042 112.744C832.826 118.565 828.633 126.459 826.462 136.424C824.094 147.08 824.834 155.467 828.682 161.584C832.53 167.603 838.943 170.612 847.922 170.612ZM931.293 84.624H977.173C990.592 84.624 1000.36 87.6333 1006.48 93.652C1012.69 99.572 1014.72 107.613 1012.55 117.776C1011.36 123.301 1008.75 128.087 1004.7 132.132C1000.75 136.177 995.525 139.088 989.013 140.864C998.683 144.317 1002.43 152.211 1000.26 164.544L998.189 177.568C997.301 183.093 997.449 187.237 998.633 190H972.881C971.993 187.336 972.043 183.143 973.029 177.42L975.101 166.024C976.187 160.499 975.693 156.651 973.621 154.48C971.648 152.309 967.997 151.224 962.669 151.224H942.245L933.957 190H908.945L931.293 84.624ZM946.093 132.428H967.109C972.437 132.428 976.779 131.293 980.133 129.024C983.488 126.755 985.56 123.597 986.349 119.552C988.323 109.587 983.981 104.604 973.325 104.604H952.013L946.093 132.428ZM1099.39 84.624H1130.61L1079.41 128.58L1108.27 190H1080.15L1059.13 144.12L1040.78 158.476L1034.12 190H1009.11L1031.45 84.624H1056.47L1046.85 129.912L1099.39 84.624Z" fill="white"/>
<path d="M516.449 267.527C516.449 269.318 513.656 273.507 508.07 280.096C502.556 286.613 496.97 292.27 491.312 297.068C486.228 305.232 482.504 312 480.141 317.371C477.777 322.671 474.841 331.085 471.332 342.615C466.964 356.652 461.557 367.788 455.111 376.023C448.738 384.259 439.75 391.6 428.148 398.045C411.534 407.283 394.525 411.902 377.123 411.902C362.37 411.902 350.447 407.892 341.352 399.871C332.257 391.85 327.709 381.323 327.709 368.289C327.709 357.189 331.146 346.661 338.021 336.707C344.896 326.681 354.278 318.589 366.166 312.43C378.126 306.271 389.19 303.191 399.359 303.191C400.219 303.191 400.971 303.263 401.615 303.406C401.615 301.616 402.117 298.465 403.119 293.953C401.83 294.096 400.29 294.168 398.5 294.168C386.97 294.168 377.768 291.626 370.893 286.541C364.089 281.456 360.688 274.689 360.688 266.238C360.688 251.629 368.959 238.667 385.502 227.352C402.045 216.036 421.059 210.379 442.543 210.379C459.587 210.379 473.516 214.64 484.33 223.162C491.85 220.369 497.4 218.973 500.98 218.973C507.927 218.973 511.4 221.837 511.4 227.566C511.4 232.866 507.354 239.454 499.262 247.332C499.835 251.271 500.121 254.565 500.121 257.215C500.121 264.949 497.865 273.221 493.354 282.029C491.993 284.679 491.026 286.004 490.453 286.004C490.095 286.004 489.88 285.789 489.809 285.359C489.88 285.001 490.023 284.643 490.238 284.285C495.538 275.548 498.188 266.382 498.188 256.785C498.188 253.849 498.044 251.128 497.758 248.621C485.798 259.148 472.442 268.351 457.689 276.229C443.008 284.035 429.008 289.441 415.688 292.449C413.396 296.173 411.641 300.04 410.424 304.051C429.33 307.273 438.783 317.55 438.783 334.881V337.029C453.035 333.162 470.544 319.018 491.312 294.598C495.967 287.293 500.73 280.848 505.6 275.262C510.469 269.676 513.799 266.883 515.59 266.883C516.02 266.883 516.306 267.098 516.449 267.527ZM509.359 227.781C509.359 223.055 506.638 220.691 501.195 220.691C497.042 220.691 492.064 222.088 486.264 224.881C492.423 230.18 496.612 236.984 498.832 245.291C505.85 238.488 509.359 232.651 509.359 227.781ZM497.328 246.688C495.466 238.165 491.205 231.111 484.545 225.525C471.726 231.899 458.979 241.173 446.303 253.348C433.627 265.451 423.78 277.804 416.762 290.408C429.509 287.4 443.188 281.958 457.797 274.08C472.478 266.131 485.655 257 497.328 246.688ZM482.289 223.807C472.764 216.287 459.659 212.527 442.973 212.527C422.849 212.527 404.408 218.113 387.65 229.285C370.964 240.385 362.621 252.632 362.621 266.023C362.621 274.259 365.915 280.704 372.504 285.359C379.092 289.943 388.259 292.234 400.004 292.234H403.764C412.143 264.806 438.318 241.997 482.289 223.807ZM436.957 337.566C437.458 329.044 435.346 322.026 430.619 316.512C425.893 310.926 419.089 307.381 410.209 305.877C409.135 309.529 408.598 313.182 408.598 316.834C408.598 323.208 410.639 328.328 414.721 332.195C418.874 336.062 424.317 337.996 431.049 337.996C433.126 337.996 435.095 337.853 436.957 337.566ZM487.553 301.473C468.288 322.885 451.889 335.418 438.354 339.07C436.921 348.882 432.302 357.833 424.496 365.926C416.762 373.947 408.92 377.957 400.971 377.957C396.745 377.957 393.201 376.668 390.336 374.09C387.543 371.512 386.146 368.325 386.146 364.529C386.146 360.59 387.471 357.046 390.121 353.895C392.842 350.743 395.85 349.168 399.145 349.168C404.158 349.168 406.664 351.46 406.664 356.043C406.664 358.12 405.84 359.982 404.193 361.629C402.546 363.276 400.72 364.1 398.715 364.1C394.919 364.1 393.021 362.417 393.021 359.051C393.021 358.549 393.165 357.762 393.451 356.688C393.594 356.115 393.666 355.577 393.666 355.076C393.666 354.646 393.451 354.432 393.021 354.432C391.947 354.432 390.873 355.613 389.799 357.977C388.725 360.268 388.188 362.452 388.188 364.529C388.188 367.895 389.405 370.688 391.84 372.908C394.275 375.128 397.318 376.238 400.971 376.238C408.275 376.238 415.759 372.264 423.422 364.314C431.156 356.365 435.525 348.094 436.527 339.5C434.952 339.786 433.126 339.93 431.049 339.93C421.882 339.93 414.649 336.85 409.35 330.691C404.05 324.461 401.4 316.046 401.4 305.447C383.354 306.593 367.562 314.113 354.027 328.006C340.564 341.827 333.832 357.404 333.832 374.734C333.832 385.118 337.663 393.533 345.326 399.979C353.061 406.424 363.158 409.646 375.619 409.646C392.52 409.646 407.882 403.667 421.703 391.707C435.525 379.747 451.566 358.549 469.828 328.113C475.414 318.66 481.322 309.78 487.553 301.473Z" fill="white"/>
<path d="M143.28 264.624H233.116L228.232 286.972H195.968L178.208 370H153.048L170.808 286.972H138.544L143.28 264.624ZM267.831 372.368C251.255 372.368 238.774 367.04 230.387 356.384C221.902 345.827 219.583 331.421 223.431 313.168C226.49 298.368 233.791 286.183 245.335 276.612C256.682 267.041 270.199 262.256 285.887 262.256C302.266 262.256 314.698 267.535 323.183 278.092C331.669 288.649 333.987 302.956 330.139 321.012C327.081 335.812 319.779 348.096 308.235 357.864C296.593 367.533 283.125 372.368 267.831 372.368ZM270.199 350.612C278.389 350.612 285.69 347.701 292.103 341.88C298.319 336.059 302.463 328.313 304.535 318.644C306.805 307.791 306.015 299.305 302.167 293.188C298.319 287.071 291.955 284.012 283.075 284.012C274.787 284.012 267.535 286.923 261.319 292.744C255.103 298.565 250.91 306.459 248.739 316.424C246.371 327.08 247.111 335.467 250.959 341.584C254.807 347.603 261.221 350.612 270.199 350.612ZM607.52 264.624L602.784 286.972H547.284L543.14 306.064H593.608L589.168 327.08H538.7L534.26 347.652H589.612L584.876 370H504.512L527.008 264.624H607.52ZM613.007 264.624H702.843L697.959 286.972H665.695L647.935 370H622.775L640.535 286.972H608.271L613.007 264.624ZM770.909 304.88L779.493 264.624H804.505L782.009 370H756.997L766.025 327.376H723.697L714.669 370H689.657L712.153 264.624H737.165L728.581 304.88H770.909ZM901.063 264.624L896.327 286.972H840.827L836.683 306.064H887.151L882.711 327.08H832.243L827.803 347.652H883.155L878.419 370H798.055L820.551 264.624H901.063ZM912.762 264.624H958.642C972.061 264.624 981.829 267.633 987.946 273.652C994.162 279.572 996.185 287.613 994.014 297.776C992.83 303.301 990.215 308.087 986.17 312.132C982.223 316.177 976.994 319.088 970.482 320.864C980.151 324.317 983.901 332.211 981.73 344.544L979.658 357.568C978.77 363.093 978.918 367.237 980.102 370H954.35C953.462 367.336 953.511 363.143 954.498 357.42L956.57 346.024C957.655 340.499 957.162 336.651 955.09 334.48C953.117 332.309 949.466 331.224 944.138 331.224H923.714L915.426 370H890.414L912.762 264.624ZM927.562 312.428H948.578C953.906 312.428 958.247 311.293 961.602 309.024C964.957 306.755 967.029 303.597 967.818 299.552C969.791 289.587 965.45 284.604 954.794 284.604H933.482L927.562 312.428Z" fill="white"/>
</svg>
