<svg width="1243" height="253" viewBox="0 0 1243 253" fill="none" xmlns="http://www.w3.org/2000/svg">
<path d="M297.838 48.1191C248.137 116.296 223.287 160.303 223.287 180.141C223.287 185.01 224.863 188.985 228.014 192.064C231.236 195.215 235.318 196.791 240.26 196.791C248.782 196.791 257.125 192.243 265.289 183.148C266.005 182.432 266.542 182.074 266.9 182.074C267.33 182.074 267.545 182.361 267.545 182.934C267.545 183.721 266.292 185.189 263.785 187.338C255.335 194.857 247.493 198.617 240.26 198.617C233.456 198.617 227.799 195.967 223.287 190.668C218.775 185.368 216.52 178.708 216.52 170.688C216.52 156.938 223.574 138.855 237.682 116.439C236.894 117.514 235.784 119.018 234.352 120.951L229.195 127.934C216.233 146.052 203.772 160.232 191.812 170.473C179.924 180.714 170.042 185.834 162.164 185.834C157.008 185.834 152.854 183.972 149.703 180.248C146.552 176.524 144.977 171.583 144.977 165.424C144.977 158.907 146.695 152.462 150.133 146.088C153.642 139.643 161.448 128.471 173.551 112.572C186.227 96.0293 194.283 84.5352 197.721 78.0898C201.158 71.5729 202.877 64.6621 202.877 57.3574C202.877 50.554 200.335 45.1471 195.25 41.1367C190.237 37.1263 183.398 35.1211 174.732 35.1211C152.818 35.1211 131.728 45.1113 111.461 65.0918C91.2656 85.0007 81.168 105.733 81.168 127.289C81.168 135.382 83.4238 141.898 87.9355 146.84C92.5189 151.71 98.5703 154.145 106.09 154.145C120.341 154.145 134.055 146.016 147.232 129.76C160.982 112.715 167.857 97.1751 167.857 83.1387C167.857 71.2507 162.809 65.3066 152.711 65.3066C150.204 65.3066 147.841 65.8796 145.621 67.0254C143.401 68.1712 142.291 69.4245 142.291 70.7852C142.291 71.3581 142.613 71.6445 143.258 71.6445C143.688 71.5729 144.332 71.3581 145.191 71C145.549 70.8568 146.051 70.7852 146.695 70.7852C150.419 70.7852 152.281 72.5397 152.281 76.0488C152.281 78.3405 151.422 80.3457 149.703 82.0645C147.984 83.7832 145.979 84.6426 143.688 84.6426C139.247 84.6426 137.027 82.2793 137.027 77.5527C137.027 73.6855 138.603 70.3555 141.754 67.5625C144.977 64.6979 148.772 63.2656 153.141 63.2656C158.225 63.2656 162.271 65.056 165.279 68.6367C168.287 72.2174 169.791 77.0514 169.791 83.1387C169.791 97.1751 163.059 112.787 149.596 129.975C135.917 147.449 121.415 156.186 106.09 156.186C97.0664 156.186 89.7975 153.106 84.2832 146.947C78.8405 140.717 76.1191 132.481 76.1191 122.24C76.1191 98.7507 88.4368 77.3379 113.072 58.002C122.669 50.4824 133.053 44.4668 144.225 39.9551C155.396 35.4434 165.458 33.1875 174.41 33.1875C185.296 33.1875 193.746 36.1237 199.762 41.9961C205.777 47.7969 208.785 55.9251 208.785 66.3809C208.785 75.2611 206.601 83.7116 202.232 91.7324C197.864 99.6816 186.979 115.15 169.576 138.139C161.985 148.165 157.008 155.362 154.645 159.73C152.281 164.027 151.1 168.109 151.1 171.977C151.1 175.486 152.174 178.386 154.322 180.678C156.542 182.969 159.299 184.115 162.594 184.115C173.336 184.115 188.196 173.301 207.174 151.674C226.152 130.046 250.823 95.7428 281.188 48.7637C284.983 49.0501 287.096 49.1934 287.525 49.1934C290.247 49.1934 293.684 48.8353 297.838 48.1191Z" fill="white"/>
<path d="M79.44 123.468L102.676 78.624H140.268L117.92 184H94.388L101.048 153.068C105.291 133.335 109.188 116.265 112.74 101.86C108.695 109.951 104.6 118.041 100.456 126.132L69.968 184H49.692L43.772 126.132C42.6867 114.193 42.0453 106.152 41.848 102.008C39.0853 117.4 35.7307 134.42 31.784 153.068L25.272 184H0.852L23.348 78.624H60.496L65.084 123.912C65.2813 125.589 65.824 134.124 66.712 149.516C68.192 146.457 72.4347 137.775 79.44 123.468ZM316.083 186.368C300.493 186.368 289.097 183.112 281.895 176.6C274.791 169.989 272.373 160.912 274.643 149.368H299.063C297.977 155.781 299.013 160.32 302.171 162.984C305.427 165.549 310.903 166.832 318.599 166.832C324.223 166.832 328.712 165.895 332.067 164.02C335.52 162.145 337.543 159.58 338.135 156.324C339.121 152.18 338.48 149.121 336.211 147.148C333.941 145.175 329.255 143.497 322.151 142.116L314.011 140.636C303.157 138.761 295.264 134.815 290.331 128.796C285.496 122.777 284.065 114.933 286.039 105.264C287.617 96.8773 292.452 89.9213 300.543 84.396C308.337 78.9693 318.5 76.256 331.031 76.256C345.831 76.256 356.536 79.216 363.147 85.136C369.856 91.056 372.273 99.5413 370.399 110.592H346.571C347.36 105.461 346.423 101.712 343.759 99.344C341.193 96.976 336.507 95.792 329.699 95.792C318.845 95.792 312.777 99.2453 311.495 106.152C310.705 109.901 311.445 112.763 313.715 114.736C315.984 116.709 320.276 118.288 326.591 119.472L335.175 121.1C346.916 123.271 355.204 127.217 360.039 132.94C364.873 138.663 366.255 146.457 364.183 156.324C362.111 165.796 356.832 173.196 348.347 178.524C339.861 183.753 329.107 186.368 316.083 186.368ZM393.841 184H368.829L391.325 78.624H416.337L393.841 184ZM459.307 186.368C442.633 186.368 430.546 181.188 423.047 170.828C415.351 160.369 413.477 145.915 417.423 127.464C420.679 112.368 427.882 100.035 439.031 90.464C450.082 80.992 463.353 76.256 478.843 76.256C491.769 76.256 502.277 79.7587 510.367 86.764C518.359 93.6707 522.257 103.537 522.059 116.364H496.899C496.505 110.345 494.531 105.757 490.979 102.6C487.427 99.4427 482.593 97.864 476.475 97.864C468.385 97.864 461.33 100.775 455.311 106.596C449.293 112.319 445.247 120.015 443.175 129.684C440.807 141.031 441.251 149.713 444.507 155.732C447.862 161.751 453.782 164.76 462.267 164.76C468.878 164.76 474.847 162.885 480.175 159.136C485.503 155.387 489.45 150.157 492.015 143.448H517.027C512.785 157.36 505.681 168.016 495.715 175.416C485.849 182.717 473.713 186.368 459.307 186.368ZM654.162 78.624L649.426 100.972H597.034L592.89 120.064H641.286L636.846 141.228H588.45L579.274 184H554.262L576.758 78.624H654.162ZM744.567 78.624L739.831 100.972H684.331L680.187 120.064H730.655L726.215 141.08H675.747L671.307 161.652H726.659L721.923 184H641.559L664.055 78.624H744.567ZM777.571 186.368C761.982 186.368 750.586 183.112 743.383 176.6C736.279 169.989 733.862 160.912 736.131 149.368H760.551C759.466 155.781 760.502 160.32 763.659 162.984C766.915 165.549 772.391 166.832 780.087 166.832C785.711 166.832 790.2 165.895 793.555 164.02C797.008 162.145 799.031 159.58 799.623 156.324C800.61 152.18 799.968 149.121 797.699 147.148C795.43 145.175 790.743 143.497 783.639 142.116L775.499 140.636C764.646 138.761 756.752 134.815 751.819 128.796C746.984 122.777 745.554 114.933 747.527 105.264C749.106 96.8773 753.94 89.9213 762.031 84.396C769.826 78.9693 779.988 76.256 792.519 76.256C807.319 76.256 818.024 79.216 824.635 85.136C831.344 91.056 833.762 99.5413 831.887 110.592H808.059C808.848 105.461 807.911 101.712 805.247 99.344C802.682 96.976 797.995 95.792 791.187 95.792C780.334 95.792 774.266 99.2453 772.983 106.152C772.194 109.901 772.934 112.763 775.203 114.736C777.472 116.709 781.764 118.288 788.079 119.472L796.663 121.1C808.404 123.271 816.692 127.217 821.527 132.94C826.362 138.663 827.743 146.457 825.671 156.324C823.599 165.796 818.32 173.196 809.835 178.524C801.35 183.753 790.595 186.368 777.571 186.368ZM841.542 78.624H931.378L926.494 100.972H894.23L876.47 184H851.31L869.07 100.972H836.806L841.542 78.624ZM943.204 184H918.192L940.688 78.624H965.7L943.204 184ZM1027.18 124.948L1051.16 78.624H1077.8L1020.23 184H990.477L973.309 78.624H999.209L1005.87 124.948C1007.25 136.492 1008.34 148.825 1009.13 161.948C1015.24 148.727 1021.26 136.393 1027.18 124.948ZM1152.08 184H1126.33L1123.96 165.648H1080.3L1070.24 184H1043.89L1105.02 78.624H1134.62L1152.08 184ZM1101.61 126.724L1091.7 144.78H1121.3L1119.08 126.724C1117.79 117.943 1116.71 109.112 1115.82 100.232C1110.89 109.803 1106.15 118.633 1101.61 126.724ZM1206.49 78.624L1188.73 161.652H1237.12L1232.24 184H1158.98L1181.48 78.624H1206.49Z" fill="white"/>
</svg>
