<svg width="45" height="45" viewBox="0 0 45 45" fill="none" xmlns="http://www.w3.org/2000/svg">
<path d="M1 22.5C1 12.3656 1 7.29611 4.14805 4.14805C7.29611 1 12.3633 1 22.5 1C32.6344 1 37.7039 1 40.8519 4.14805C44 7.29611 44 12.3633 44 22.5C44 32.6344 44 37.7039 40.8519 40.8519C37.7039 44 32.6367 44 22.5 44C12.3656 44 7.29611 44 4.14805 40.8519C1 37.7039 1 32.6367 1 22.5Z" stroke="white" stroke-width="1.5" stroke-linecap="round" stroke-linejoin="round"/>
<path d="M34.9661 10.0527H34.9435M32.6848 22.5001C32.6848 25.2011 31.6118 27.7915 29.7019 29.7014C27.792 31.6113 25.2016 32.6843 22.5006 32.6843C19.7996 32.6843 17.2092 31.6113 15.2993 29.7014C13.3894 27.7915 12.3164 25.2011 12.3164 22.5001C12.3164 19.7991 13.3894 17.2087 15.2993 15.2988C17.2092 13.3889 19.7996 12.3159 22.5006 12.3159C25.2016 12.3159 27.792 13.3889 29.7019 15.2988C31.6118 17.2087 32.6848 19.7991 32.6848 22.5001Z" stroke="white" stroke-width="1.5" stroke-linecap="round" stroke-linejoin="round"/>
</svg>
