<svg width="800" height="253" viewBox="0 0 800 253" fill="none" xmlns="http://www.w3.org/2000/svg">
<path d="M378.449 81.5273C378.449 83.3177 375.656 87.5072 370.07 94.0957C364.556 100.613 358.97 106.27 353.312 111.068C348.228 119.232 344.504 126 342.141 131.371C339.777 136.671 336.841 145.085 333.332 156.615C328.964 170.652 323.557 181.788 317.111 190.023C310.738 198.259 301.75 205.6 290.148 212.045C273.534 221.283 256.525 225.902 239.123 225.902C224.37 225.902 212.447 221.892 203.352 213.871C194.257 205.85 189.709 195.323 189.709 182.289C189.709 171.189 193.146 160.661 200.021 150.707C206.896 140.681 216.278 132.589 228.166 126.43C240.126 120.271 251.19 117.191 261.359 117.191C262.219 117.191 262.971 117.263 263.615 117.406C263.615 115.616 264.117 112.465 265.119 107.953C263.83 108.096 262.29 108.168 260.5 108.168C248.97 108.168 239.768 105.626 232.893 100.541C226.089 95.4564 222.688 88.6888 222.688 80.2383C222.688 65.6289 230.959 52.6667 247.502 41.3516C264.045 30.0365 283.059 24.3789 304.543 24.3789C321.587 24.3789 335.516 28.64 346.33 37.1621C353.85 34.3691 359.4 32.9727 362.98 32.9727C369.927 32.9727 373.4 35.8372 373.4 41.5664C373.4 46.8659 369.354 53.4544 361.262 61.332C361.835 65.2708 362.121 68.5651 362.121 71.2148C362.121 78.9492 359.865 87.2207 355.354 96.0293C353.993 98.679 353.026 100.004 352.453 100.004C352.095 100.004 351.88 99.7891 351.809 99.3594C351.88 99.0013 352.023 98.6432 352.238 98.2852C357.538 89.5482 360.188 80.3815 360.188 70.7852C360.188 67.849 360.044 65.1276 359.758 62.6211C347.798 73.1484 334.442 82.3509 319.689 90.2285C305.008 98.0345 291.008 103.441 277.688 106.449C275.396 110.173 273.641 114.04 272.424 118.051C291.33 121.273 300.783 131.55 300.783 148.881V151.029C315.035 147.162 332.544 133.018 353.312 108.598C357.967 101.293 362.73 94.8477 367.6 89.2617C372.469 83.6758 375.799 80.8828 377.59 80.8828C378.02 80.8828 378.306 81.0977 378.449 81.5273ZM371.359 41.7812C371.359 37.0547 368.638 34.6914 363.195 34.6914C359.042 34.6914 354.064 36.0879 348.264 38.8809C354.423 44.1803 358.612 50.9837 360.832 59.291C367.85 52.4876 371.359 46.651 371.359 41.7812ZM359.328 60.6875C357.466 52.1654 353.205 45.1113 346.545 39.5254C333.726 45.8991 320.979 55.1732 308.303 67.3477C295.627 79.4505 285.78 91.804 278.762 104.408C291.509 101.4 305.188 95.9577 319.797 88.0801C334.478 80.1309 347.655 71 359.328 60.6875ZM344.289 37.8066C334.764 30.2871 321.659 26.5273 304.973 26.5273C284.849 26.5273 266.408 32.1133 249.65 43.2852C232.964 54.3854 224.621 66.6315 224.621 80.0234C224.621 88.2591 227.915 94.7044 234.504 99.3594C241.092 103.943 250.259 106.234 262.004 106.234H265.764C274.143 78.806 300.318 55.9967 344.289 37.8066ZM298.957 151.566C299.458 143.044 297.346 136.026 292.619 130.512C287.893 124.926 281.089 121.381 272.209 119.877C271.135 123.529 270.598 127.182 270.598 130.834C270.598 137.208 272.639 142.328 276.721 146.195C280.874 150.062 286.317 151.996 293.049 151.996C295.126 151.996 297.095 151.853 298.957 151.566ZM349.553 115.473C330.288 136.885 313.889 149.418 300.354 153.07C298.921 162.882 294.302 171.833 286.496 179.926C278.762 187.947 270.92 191.957 262.971 191.957C258.745 191.957 255.201 190.668 252.336 188.09C249.543 185.512 248.146 182.325 248.146 178.529C248.146 174.59 249.471 171.046 252.121 167.895C254.842 164.743 257.85 163.168 261.145 163.168C266.158 163.168 268.664 165.46 268.664 170.043C268.664 172.12 267.84 173.982 266.193 175.629C264.546 177.276 262.72 178.1 260.715 178.1C256.919 178.1 255.021 176.417 255.021 173.051C255.021 172.549 255.165 171.762 255.451 170.688C255.594 170.115 255.666 169.577 255.666 169.076C255.666 168.646 255.451 168.432 255.021 168.432C253.947 168.432 252.873 169.613 251.799 171.977C250.725 174.268 250.188 176.452 250.188 178.529C250.188 181.895 251.405 184.688 253.84 186.908C256.275 189.128 259.318 190.238 262.971 190.238C270.275 190.238 277.759 186.264 285.422 178.314C293.156 170.365 297.525 162.094 298.527 153.5C296.952 153.786 295.126 153.93 293.049 153.93C283.882 153.93 276.649 150.85 271.35 144.691C266.05 138.461 263.4 130.046 263.4 119.447C245.354 120.593 229.562 128.113 216.027 142.006C202.564 155.827 195.832 171.404 195.832 188.734C195.832 199.118 199.663 207.533 207.326 213.979C215.061 220.424 225.158 223.646 237.619 223.646C254.52 223.646 269.882 217.667 283.703 205.707C297.525 193.747 313.566 172.549 331.828 142.113C337.414 132.66 343.322 123.78 349.553 115.473Z" fill="white"/>
<path d="M79.44 123.468L102.676 78.624H140.268L117.92 184H94.388L101.048 153.068C105.291 133.335 109.188 116.265 112.74 101.86C108.695 109.951 104.6 118.041 100.456 126.132L69.968 184H49.692L43.772 126.132C42.6867 114.193 42.0453 106.152 41.848 102.008C39.0853 117.4 35.7307 134.42 31.784 153.068L25.272 184H0.852L23.348 78.624H60.496L65.084 123.912C65.2813 125.589 65.824 134.124 66.712 149.516C68.192 146.457 72.4347 137.775 79.44 123.468ZM232.716 184H206.964L204.596 165.648H160.936L150.872 184H124.528L185.652 78.624H215.252L232.716 184ZM182.248 126.724L172.332 144.78H201.932L199.712 126.724C198.429 117.943 197.344 109.112 196.456 100.232C191.523 109.803 186.787 118.633 182.248 126.724ZM445.177 184H419.425L417.057 165.648H373.397L363.333 184H336.989L398.113 78.624H427.713L445.177 184ZM394.709 126.724L384.793 144.78H414.393L412.173 126.724C410.89 117.943 409.805 109.112 408.917 100.232C403.984 109.803 399.248 118.633 394.709 126.724ZM557.307 78.624L553.015 98.16L508.911 140.192C501.313 147.099 493.469 154.351 485.379 161.948C502.941 161.751 512.857 161.652 515.127 161.652H540.435L535.551 184H447.639L451.783 164.316L495.887 122.58C503.287 115.575 511.18 108.273 519.567 100.676C502.004 100.873 491.989 100.972 489.523 100.972H467.175L471.911 78.624H557.307ZM572.481 184H547.469L569.965 78.624H594.977L572.481 184ZM674.06 100.676L678.796 78.624H702.624L680.128 184H653.784L637.06 141.968C632.521 130.72 628.92 120.755 626.256 112.072C622.901 130.128 619.596 146.753 616.34 161.948L611.604 184H587.776L610.272 78.624H636.616L653.488 120.656C658.323 133.088 661.875 143.103 664.144 150.7C665.821 141.524 669.127 124.849 674.06 100.676ZM799.923 78.624L795.187 100.972H739.687L735.543 120.064H786.011L781.571 141.08H731.103L726.663 161.652H782.015L777.279 184H696.914L719.411 78.624H799.923Z" fill="white"/>
</svg>
