<svg width="53" height="43" viewBox="0 0 53 43" fill="none" xmlns="http://www.w3.org/2000/svg">
<path fill-rule="evenodd" clip-rule="evenodd" d="M3.64347 18.5112C17.8705 12.4429 27.3575 8.44234 32.1043 6.50945C45.6574 0.990665 48.4736 0.0319935 50.3091 0.000337523C50.7129 -0.00662485 51.6155 0.0913263 52.2003 0.555818C52.694 0.948026 52.8298 1.47784 52.8948 1.8497C52.9598 2.22156 53.0408 3.06866 52.9764 3.73055C52.242 11.2853 49.0641 29.6188 47.4473 38.0803C46.7632 41.6607 45.4162 42.8612 44.1121 42.9787C41.278 43.234 39.1259 41.1451 36.381 39.3835C32.0857 36.6271 29.6591 34.9111 25.4898 32.2213C20.6714 29.1128 23.795 27.4043 26.5409 24.6121C27.2596 23.8814 39.7466 12.7621 39.9883 11.7534C40.0185 11.6272 40.0466 11.157 39.7612 10.9087C39.4758 10.6604 39.0547 10.7453 38.7508 10.8128C38.32 10.9085 31.4582 15.3486 18.1654 24.1332C16.2177 25.4425 14.4535 26.0804 12.8729 26.047C11.1304 26.0102 7.77848 25.0825 5.28669 24.2895C2.2304 23.3169 -0.198678 22.8027 0.0128397 21.1509C0.123011 20.2905 1.33322 19.4106 3.64347 18.5112Z" fill="white"/>
</svg>
