<svg width="559" height="253" viewBox="0 0 559 253" fill="none" xmlns="http://www.w3.org/2000/svg">
<path d="M305.164 60.6875C305.164 65.4857 300.76 67.8848 291.951 67.8848C285.005 67.8848 268.497 64.6621 242.43 58.2168C230.255 65.1634 224.168 73.9004 224.168 84.4277C224.168 89.5124 225.923 93.0215 229.432 94.9551C234.516 94.5254 238.348 94.3105 240.926 94.3105C248.374 94.3105 252.098 95.2057 252.098 96.9961C252.098 98.1419 250.128 98.7148 246.189 98.7148C241.176 98.7148 235.734 97.9987 229.861 96.5664C221.912 97.7122 212.674 100.792 202.146 105.805C175.363 118.624 161.971 135.238 161.971 155.648C161.971 169.184 169.275 177.777 183.885 181.43C181.235 177.061 179.91 172.012 179.91 166.283C179.91 152.175 187.107 139.177 201.502 127.289C215.896 115.401 231.652 109.457 248.768 109.457C256.645 109.457 262.911 111.391 267.566 115.258C272.221 119.125 274.549 124.317 274.549 130.834C274.549 144.799 266.886 157.403 251.561 168.646C236.235 179.818 218.976 185.404 199.783 185.404C195.916 185.404 192.299 185.189 188.934 184.76C195.809 193.998 206.014 198.617 219.549 198.617C227.928 198.617 234.767 197.364 240.066 194.857L241.355 194.643C241.785 194.786 242 195.072 242 195.502C242 196.505 239.35 197.543 234.051 198.617C228.751 199.763 223.917 200.336 219.549 200.336C204.581 200.336 193.159 194.929 185.281 184.115C174.324 181.68 165.73 177.562 159.5 171.762C153.341 165.889 150.262 159.086 150.262 151.352C150.262 140.967 154.559 131.264 163.152 122.24C171.746 113.145 183.204 106.27 197.527 101.615C206.193 98.7507 216.111 96.6738 227.283 95.3848C219.334 92.0189 215.359 86.6836 215.359 79.3789C215.359 69.9974 221.16 62.1556 232.762 55.8535C216.147 51.8431 202.433 49.8379 191.619 49.8379C170.421 49.8379 152.339 55.1374 137.371 65.7363C122.475 76.3353 115.027 89.1543 115.027 104.193C115.027 110.925 116.997 116.69 120.936 121.488C124.874 126.286 129.601 128.686 135.115 128.686C138.911 128.686 140.809 128.077 140.809 126.859C140.809 126.215 140.128 126 138.768 126.215C134.972 126.215 133.074 124.46 133.074 120.951C133.074 118.946 133.898 117.227 135.545 115.795C137.264 114.363 139.305 113.646 141.668 113.646C146.251 113.646 148.543 115.867 148.543 120.307C148.543 123.243 147.218 125.749 144.568 127.826C141.99 129.831 138.839 130.834 135.115 130.834C128.455 130.834 122.762 127.862 118.035 121.918C113.38 115.902 111.053 108.669 111.053 100.219C111.053 87.543 116.567 75.9056 127.596 65.3066C140.701 52.7025 159.106 46.4004 182.811 46.4004C195.988 46.4004 213.533 49.0859 235.447 54.457C245.33 49.6589 256.824 47.2598 269.93 47.2598C279.669 47.2598 287.977 48.5846 294.852 51.2344C301.727 53.8125 305.164 56.9635 305.164 60.6875ZM302.908 60.4727C302.908 57.6797 299.936 55.209 293.992 53.0605C288.12 50.9121 281.352 49.8379 273.689 49.8379C263.162 49.8379 253.566 52.1296 244.9 56.7129C263.878 62.8717 279.848 65.9512 292.811 65.9512C299.542 65.9512 302.908 64.125 302.908 60.4727ZM272.615 129.975C272.615 124.818 270.574 120.557 266.492 117.191C262.41 113.826 257.254 112.143 251.023 112.143C235.626 112.143 220.587 118.552 205.906 131.371C191.225 144.118 183.885 157.152 183.885 170.473C183.885 174.34 185.066 178.279 187.43 182.289C191.583 183.077 195.415 183.471 198.924 183.471C215.825 183.471 232.332 177.634 248.445 165.961C264.559 154.216 272.615 142.221 272.615 129.975Z" fill="white"/>
<path d="M558.666 84.6426C558.666 101.615 543.913 112.68 514.408 117.836C531.739 121.775 540.404 130.583 540.404 144.262C540.404 154.574 534.496 163.633 522.68 171.439C510.863 179.245 497.185 183.148 481.645 183.148C471.833 183.148 463.777 181.179 457.475 177.24C451.173 173.301 448.021 168.253 448.021 162.094C448.021 155.72 451.137 150.277 457.367 145.766C463.669 141.254 471.26 138.998 480.141 138.998C486.872 138.998 490.238 139.428 490.238 140.287C490.238 140.717 490.023 140.932 489.594 140.932H488.734C486.085 140.502 483.865 140.287 482.074 140.287C474.268 140.287 467.644 142.543 462.201 147.055C456.83 151.495 454.145 156.938 454.145 163.383C454.145 168.682 456.257 173.015 460.482 176.381C464.779 179.747 470.294 181.43 477.025 181.43C490.131 181.43 502.162 176.775 513.119 167.465C524.148 158.155 529.662 147.914 529.662 136.742C529.662 127.504 524.005 121.417 512.689 118.48C506.531 119.411 501.482 119.877 497.543 119.877C493.819 119.877 491.957 119.411 491.957 118.48C491.957 117.048 494.607 116.332 499.906 116.332C503.988 116.332 508.249 116.69 512.689 117.406C523.575 113.754 532.24 108.49 538.686 101.615C545.131 94.7402 548.354 87.2565 548.354 79.1641C548.354 70.069 542.553 65.5215 530.951 65.5215C520.925 65.5215 510.899 68.9948 500.873 75.9414C490.847 82.8164 485.834 89.763 485.834 96.7812C485.834 103.227 489.952 106.449 498.188 106.449C503.129 106.449 508.715 104.48 514.945 100.541C521.176 96.5306 526.081 91.804 529.662 86.3613C530.02 85.6452 530.45 85.2871 530.951 85.2871C531.238 85.3587 531.381 85.502 531.381 85.7168C531.381 86.5046 530.02 88.4023 527.299 91.4102C524.577 94.418 522.035 96.8529 519.672 98.7148C512.081 104.73 504.776 107.738 497.758 107.738C493.533 107.738 490.095 106.521 487.445 104.086C484.796 101.579 483.471 98.3926 483.471 94.5254C483.471 87.2923 488.555 80.4531 498.725 74.0078C508.894 67.4909 519.708 64.2324 531.166 64.2324C539.545 64.2324 546.205 66.0944 551.146 69.8184C556.16 73.4707 558.666 78.4121 558.666 84.6426Z" fill="white"/>
<path d="M117.66 114.736L134.088 78.624H160.58L109.372 184H81.4L80.512 146.704C80.4133 136.936 80.512 124.159 80.808 108.372C77.848 116.463 72.52 129.24 64.824 146.704L48.1 184H20.128L13.616 78.624H39.368L40.7 114.736C40.996 128.549 41.0453 142.511 40.848 156.62C45.88 144.188 51.7013 130.227 58.312 114.736L74.296 78.624H99.308L100.048 114.736C100.245 125.885 100.097 139.748 99.604 156.324C102.761 148.727 108.78 134.864 117.66 114.736ZM387.118 108.076C384.849 118.041 378.534 124.849 368.174 128.5C373.404 130.868 377.153 134.617 379.422 139.748C381.79 144.78 382.382 150.207 381.198 156.028C377.153 174.676 362.994 184 338.722 184H285.738L308.086 78.624H354.558C366.694 78.624 375.624 81.3867 381.346 86.912C386.97 92.536 388.894 99.5907 387.118 108.076ZM351.154 98.604H328.806L324.07 121.1H346.714C350.76 121.1 354.114 120.113 356.778 118.14C359.541 116.167 361.268 113.503 361.958 110.148C362.748 106.399 362.156 103.537 360.182 101.564C358.308 99.5907 355.298 98.604 351.154 98.604ZM356.334 152.772C357.222 148.628 356.532 145.471 354.262 143.3C352.092 141.129 348.688 140.044 344.05 140.044H320.074L315.042 164.02H341.09C349.674 164.02 354.756 160.271 356.334 152.772Z" fill="white"/>
</svg>
