<svg width="61" height="43" viewBox="0 0 61 43" fill="none" xmlns="http://www.w3.org/2000/svg">
<path d="M48.3286 0H12.6714C9.31071 0 6.0877 1.32989 3.71136 3.6971C1.33501 6.06431 0 9.27494 0 12.6227V30.3801C0.000735268 33.7273 1.33607 36.9373 3.71234 39.3039C6.0886 41.6705 9.31119 43 12.6714 43H48.3286C49.9927 43 51.6404 42.6735 53.1778 42.0392C54.7151 41.4048 56.112 40.475 57.2886 39.3029C58.4653 38.1308 59.3987 36.7393 60.0354 35.2078C60.6722 33.6764 61 32.0349 61 30.3773V12.6227C60.9993 9.27542 59.6639 6.0655 57.2877 3.69889C54.9114 1.33227 51.6888 -8.0136e-08 48.3286 0ZM39.7609 22.3645L23.083 30.2889C22.9809 30.339 22.8677 30.3621 22.7542 30.3562C22.6406 30.3503 22.5305 30.3155 22.4343 30.2551C22.3381 30.1947 22.259 30.1107 22.2046 30.0113C22.1502 29.9118 22.1223 29.8001 22.1236 29.6868V13.3408C22.1236 12.8437 22.6504 12.5205 23.0968 12.747L39.7775 21.1658C39.8892 21.2223 39.9827 21.3087 40.0476 21.4154C40.1125 21.5221 40.1461 21.6447 40.1446 21.7694C40.1432 21.8942 40.1068 22.016 40.0394 22.1212C39.9721 22.2263 39.8738 22.3106 39.7609 22.3645Z" fill="white"/>
</svg>
