<svg width="33" height="32" viewBox="0 0 33 32" fill="none" xmlns="http://www.w3.org/2000/svg">
<path d="M13.7432 17.0041C14.7513 17.1068 15.5381 17.9581 15.5381 18.9933V29.5998L15.5283 29.8049C15.4326 30.7457 14.684 31.4942 13.7432 31.59L13.5381 31.5998H2.93164L2.72754 31.59C1.78627 31.4946 1.03825 30.746 0.942383 29.8049L0.931641 29.5998V18.9933C0.931641 17.9577 1.71886 17.1064 2.72754 17.0041L2.93164 16.9933H13.5381L13.7432 17.0041ZM30.4355 17.0041C31.4439 17.1067 32.2305 17.958 32.2305 18.9933V29.5998L32.2207 29.8049C32.1249 30.7458 31.3765 31.4943 30.4355 31.59L30.2305 31.5998H19.624L19.4199 31.59C18.4788 31.4945 17.7306 30.7459 17.6348 29.8049L17.624 29.5998V18.9933C17.624 17.9578 18.4114 17.1065 19.4199 17.0041L19.624 16.9933H30.2305L30.4355 17.0041ZM19.624 17.9933C19.0719 17.9935 18.624 18.4412 18.624 18.9933V29.5998C18.6241 30.1519 19.0719 30.5996 19.624 30.5998H30.2305C30.7827 30.5998 31.2304 30.152 31.2305 29.5998V18.9933C31.2305 18.4411 30.7828 17.9933 30.2305 17.9933H19.624ZM2.93164 17.9933C2.37936 17.9933 1.93164 18.4411 1.93164 18.9933V29.5998C1.93173 30.152 2.37941 30.5998 2.93164 30.5998H13.5381C14.0902 30.5996 14.538 30.1519 14.5381 29.5998V18.9933C14.5381 18.4412 14.0902 17.9935 13.5381 17.9933H2.93164ZM13.7432 0.31073C14.7513 0.413483 15.5381 1.2647 15.5381 2.29999V12.9064L15.5283 13.1115C15.4326 14.0524 14.684 14.8008 13.7432 14.8967L13.5381 14.9064H2.93164L2.72754 14.8967C1.78622 14.8013 1.03819 14.0527 0.942383 13.1115L0.931641 12.9064V2.29999C0.931641 1.26434 1.71886 0.412993 2.72754 0.31073L2.93164 0.299988H13.5381L13.7432 0.31073ZM30.4355 0.31073C31.4439 0.413338 32.2305 1.26459 32.2305 2.29999V12.9064L32.2207 13.1115C32.1249 14.0525 31.3765 14.8009 30.4355 14.8967L30.2305 14.9064H19.624L19.4199 14.8967C18.4787 14.8012 17.7306 14.0526 17.6348 13.1115L17.624 12.9064V2.29999C17.624 1.26443 18.4114 0.413124 19.4199 0.31073L19.624 0.299988H30.2305L30.4355 0.31073ZM2.93164 1.29999C2.37936 1.29999 1.93164 1.7477 1.93164 2.29999V12.9064C1.93165 13.4587 2.37936 13.9064 2.93164 13.9064H13.5381C14.0902 13.9063 14.5381 13.4586 14.5381 12.9064V2.29999C14.5381 1.74781 14.0902 1.30016 13.5381 1.29999H2.93164ZM19.624 1.29999C19.0719 1.30014 18.624 1.74779 18.624 2.29999V12.9064C18.6241 13.4586 19.0719 13.9063 19.624 13.9064H30.2305C30.7827 13.9064 31.2304 13.4587 31.2305 12.9064V2.29999C31.2305 1.7477 30.7828 1.29999 30.2305 1.29999H19.624Z" fill="#9E9E9E"/>
</svg>
